HIERARCHY
ROOT hip
{
	OFFSET 0.000000 0.000000 0.000000
	CHANNELS 6 Xposition Yposition Zposition Xrotation Zrotation Yrotation 
	JOINT abdomen
	{
		OFFSET 0.000000 3.422050 0.000000
		CHANNELS 3 Xrotation Zrotation Yrotation 
		JOINT chest
		{
			OFFSET 0.000000 8.486693 -0.684411
			CHANNELS 3 Xrotation Zrotation Yrotation 
			JOINT neck
			{
				OFFSET 0.000000 10.266162 -0.273764
				CHANNELS 3 Xrotation Zrotation Yrotation 
				JOINT head
				{
					OFFSET 0.000000 3.148285 0.000000
					CHANNELS 3 Xrotation Zrotation Yrotation 
					End Site
					{
						OFFSET 0.000000 3.148289 0.000000
					}
				}
			}
			JOINT lCollar
			{
				OFFSET 3.422053 6.707223 -0.821293
				CHANNELS 3 Yrotation Zrotation Xrotation 
				JOINT lShldr
				{
					OFFSET 3.285171 0.000000 0.000000
					CHANNELS 3 Zrotation Yrotation Xrotation 
					JOINT lForeArm
					{
						OFFSET 10.129278 0.000000 0.000000
						CHANNELS 3 Yrotation Zrotation Xrotation 
						JOINT lHand
						{
							OFFSET 8.486692 0.000000 0.000000
							CHANNELS 3 Zrotation Yrotation Xrotation 
							End Site
							{
								OFFSET 4.106464 0.000000 0.000000
							}
						}
					}
				}
			}
			JOINT rCollar
			{
				OFFSET -3.558935 6.707223 -0.821293
				CHANNELS 3 Yrotation Zrotation Xrotation 
				JOINT rShldr
				{
					OFFSET -3.148289 0.000000 0.000000
					CHANNELS 3 Zrotation Yrotation Xrotation 
					JOINT rForeArm
					{
						OFFSET -10.266159 0.000000 0.000000
						CHANNELS 3 Yrotation Zrotation Xrotation 
						JOINT rHand
						{
							OFFSET -8.349810 0.000000 0.000000
							CHANNELS 3 Zrotation Yrotation Xrotation 
							End Site
							{
								OFFSET -4.106464 0.000000 0.000000
							}
						}
					}
				}
			}
		}
	}
	JOINT lThigh
	{
		OFFSET 5.338403 -1.642589 1.368821
		CHANNELS 3 Xrotation Zrotation Yrotation 
		JOINT lShin
		{
			OFFSET -2.053232 -20.121670 0.000000
			CHANNELS 3 Xrotation Zrotation Yrotation 
			JOINT lFoot
			{
				OFFSET 0.000000 -19.300380 -1.231939
				CHANNELS 3 Xrotation Yrotation Zrotation 
				End Site
				{
					OFFSET 0.000000 -2.463878 4.653993
				}
			}
		}
	}
	JOINT rThigh
	{
		OFFSET -5.338403 -1.642589 1.368821
		CHANNELS 3 Xrotation Zrotation Yrotation 
		JOINT rShin
		{
			OFFSET 2.053232 -20.121670 0.000000
			CHANNELS 3 Xrotation Zrotation Yrotation 
			JOINT rFoot
			{
				OFFSET 0.000000 -19.300380 -1.231939
				CHANNELS 3 Xrotation Yrotation Zrotation 
				End Site
				{
					OFFSET 0.000000 -2.463878 4.653993
				}
			}
		}
	}
}
MOTION
Frames: 10
Frame Time: 0.033333
0.000000 43.528500 0.000000 0.000000 0.000000 0.000000 0.000000 0.000000 0.000000 0.000000 0.000000 0.000000 0.000000 0.000000 0.000000 0.000000 0.000000 0.000000 0.000000 0.000000 0.000000 0.000000 0.000000 0.000000 0.000000 0.000000 0.000000 0.000000 0.000000 0.000000 0.000000 0.000000 0.000000 0.000000 0.000000 0.000000 0.000000 0.000000 0.000000 0.000000 0.000000 0.000000 0.000000 0.000000 0.000000 0.000000 0.000000 0.000000 0.000000 0.000000 0.000000 0.000000 0.000000 0.000000 0.000000 0.000000 0.000000 0.000000 0.000000 0.000000 
0.000000 11.998247 0.000000 0.000000 0.000000 0.000000 5.998535 0.000000 0.000000 -5.000705 0.000000 0.000000 0.000000 0.000000 0.000000 0.000000 0.000000 0.000000 0.000000 0.000000 0.000000 -75.001595 -3.000269 29.999964 -32.002007 0.000000 0.000000 4.997208 0.000000 0.000000 0.000000 0.000000 0.000000 74.996117 2.998847 29.997614 31.998375 0.000000 0.000000 -10.002190 0.000000 0.000000 -42.003662 15.995851 -0.001897 130.994461 -0.000002 0.000001 63.997410 -0.000001 0.000001 -42.003620 -16.000404 -0.000146 130.994461 -0.000002 0.000001 63.997410 -0.000001 0.000001 
0.000000 11.998247 0.000000 0.000000 0.000000 0.000000 5.998535 0.000000 0.000000 -5.000705 0.000000 0.000000 0.000000 0.000000 0.000000 0.000000 0.000000 0.000000 0.000000 0.000000 0.000000 -75.001595 -3.000269 29.999964 -32.002007 0.000000 0.000000 4.997208 0.000000 0.000000 0.000000 0.000000 0.000000 74.996117 2.998847 29.997614 31.998375 0.000000 0.000000 -10.002190 0.000000 0.000000 -42.003662 15.995851 -0.001897 130.994446 -0.000002 0.000001 63.997410 -0.000001 0.000001 -42.003624 -16.000406 -0.000146 130.994446 -0.000002 0.000001 63.997410 -0.000001 0.000001 
0.000000 11.998247 0.000000 0.000000 0.000000 0.000000 5.998535 0.000000 0.000000 -5.000705 0.000000 0.000000 0.000000 0.000000 0.000000 0.000000 0.000000 0.000000 0.000000 0.000000 0.000000 -75.001595 -3.000268 29.999960 -32.002007 0.000000 0.000000 4.997207 0.000000 0.000000 0.000000 0.000000 0.000000 74.996117 2.998845 29.997610 31.998375 0.000000 0.000000 -10.002190 0.000000 0.000000 -42.003658 15.995851 -0.001898 130.994461 -0.000002 0.000001 63.997410 -0.000001 0.000001 -42.003620 -16.000402 -0.000145 130.994461 -0.000002 0.000001 63.997410 -0.000001 0.000001 
0.000000 11.998247 0.000000 0.000000 0.000000 0.000000 5.998535 0.000000 0.000000 -5.000705 0.000000 0.000000 0.000000 0.000000 0.000000 0.000000 0.000000 0.000000 0.000000 0.000000 0.000000 -75.001595 -3.000269 29.999964 -32.002007 0.000000 0.000000 4.997208 0.000000 0.000000 0.000000 0.000000 0.000000 74.996117 2.998847 29.997614 31.998375 0.000000 0.000000 -10.002190 0.000000 0.000000 -42.003662 15.995851 -0.001897 130.994461 -0.000002 0.000001 63.997410 -0.000001 0.000001 -42.003620 -16.000404 -0.000146 130.994461 -0.000002 0.000001 63.997410 -0.000001 0.000001 
0.000000 11.998247 0.000000 0.000000 0.000000 0.000000 5.998535 0.000000 0.000000 -5.000706 0.000000 0.000000 0.000000 0.000000 0.000000 0.000000 0.000000 0.000000 0.000000 0.000000 0.000000 -75.001595 -3.000269 29.999964 -32.002007 0.000000 0.000000 4.997208 0.000000 0.000000 0.000000 0.000000 0.000000 74.996117 2.998848 29.997614 31.998375 0.000000 0.000000 -10.002190 0.000000 0.000000 -42.003662 15.995852 -0.001897 130.994461 -0.000002 0.000001 63.997410 -0.000001 0.000001 -42.003628 -16.000404 -0.000146 130.994461 -0.000002 0.000001 63.997410 -0.000001 0.000001 
0.000000 11.998247 0.000000 0.000000 0.000000 0.000000 5.998535 0.000000 0.000000 -5.000705 0.000000 0.000000 0.000000 0.000000 0.000000 0.000000 0.000000 0.000000 0.000000 0.000000 0.000000 -75.001595 -3.000268 29.999964 -32.002007 0.000000 0.000000 4.997207 0.000000 0.000000 0.000000 0.000000 0.000000 74.996117 2.998846 29.997610 31.998371 0.000000 0.000000 -10.002188 0.000000 0.000000 -42.003654 15.995851 -0.001897 130.994461 -0.000002 0.000001 63.997410 -0.000001 0.000001 -42.003620 -16.000404 -0.000146 130.994461 -0.000002 0.000001 63.997410 -0.000001 0.000001 
0.000000 11.998247 0.000000 0.000000 0.000000 0.000000 5.998535 0.000000 0.000000 -5.000705 0.000000 0.000000 0.000000 0.000000 0.000000 0.000000 0.000000 0.000000 0.000000 0.000000 0.000000 -75.001595 -3.000269 29.999964 -32.002007 0.000000 0.000000 4.997208 0.000000 0.000000 0.000000 0.000000 0.000000 74.996117 2.998847 29.997610 31.998375 0.000000 0.000000 -10.002189 0.000000 0.000000 -42.003662 15.995851 -0.001897 130.994461 -0.000002 0.000001 63.997410 -0.000001 0.000001 -42.003620 -16.000404 -0.000146 130.994461 -0.000002 0.000001 63.997410 -0.000001 0.000001 
0.000000 11.998247 0.000000 0.000000 0.000000 0.000000 5.998535 0.000000 0.000000 -5.000705 0.000000 0.000000 0.000000 0.000000 0.000000 0.000000 0.000000 0.000000 0.000000 0.000000 0.000000 -75.001595 -3.000269 29.999964 -32.002007 0.000000 0.000000 4.997208 0.000000 0.000000 0.000000 0.000000 0.000000 74.996117 2.998847 29.997614 31.998375 0.000000 0.000000 -10.002190 0.000000 0.000000 -42.003662 15.995851 -0.001897 130.994461 -0.000002 0.000001 63.997410 -0.000001 0.000001 -42.003620 -16.000404 -0.000146 130.994461 -0.000002 0.000001 63.997410 -0.000001 0.000001 
0.000000 11.998247 0.000000 0.000000 0.000000 0.000000 5.998535 0.000000 0.000000 -5.000705 0.000000 0.000000 0.000000 0.000000 0.000000 0.000000 0.000000 0.000000 0.000000 0.000000 0.000000 -75.001595 -3.000270 29.999968 -32.002007 0.000000 0.000000 4.997208 0.000000 0.000000 0.000000 0.000000 0.000000 74.996117 2.998847 29.997614 31.998379 0.000000 0.000000 -10.002190 0.000000 0.000000 -42.003662 15.995851 -0.001897 130.994446 -0.000002 0.000001 63.997410 -0.000001 0.000001 -42.003624 -16.000406 -0.000146 130.994446 -0.000002 0.000001 63.997410 -0.000001 0.000001 
